# xmcd CD database file
#
# Track frame offsets:
#	150
#	29599
#	53142
#	67598
#	90529
#	111925
#	133639
#	153998
#	172802
#	196081
#	211985
#	229936
#	277432
#
# Disc length: 4449 seconds
#
# Revision: 0
# Processed by: cddbd v1.4PL0 Copyright (c) Steve Scherf et al.
# Submitted via: CDex 1.50beta10
#
DISCID=b1115f0d
DTITLE=Soundings Ensemble - Reflections-Gentle Music For Loving
DYEAR=1997
DGENRE=New Age
TTITLE0=Caressed By The Wind
TTITLE1=Tantra Love
TTITLE2=Face Of Love
TTITLE3=Back To The Garden
TTITLE4=Spice Of Love
TTITLE5=Endless Time
TTITLE6=Crystal Dance
TTITLE7=Rapture
TTITLE8=Rolling On Forever
TTITLE9=Droplets Of Water
TTITLE10=Sweetwater
TTITLE11=Terra
TTITLE12=Digital Track
EXTD=YEAR: 1997
EXTT0=
EXTT1=
EXTT2=
EXTT3=
EXTT4=
EXTT5=
EXTT6=
EXTT7=
EXTT8=
EXTT9=
EXTT10=
EXTT11=
EXTT12=
PLAYORDER=
